<svg width="20" height="9" viewBox="0 0 20 9" fill="none" xmlns="http://www.w3.org/2000/svg">
<path d="M17.8225 2.3815H11.9269L8.35 6.98225H1.29938L3.2 4.51894H0.934375C0.42 4.51894 0 4.99125 0 5.5715V7.799C0 8.37856 0.42 8.85156 0.934375 8.85156H11.7125C12.2269 8.85156 12.93 8.50025 13.275 8.06781L14.9056 6.03006L17.7956 2.41381L17.8225 2.3815ZM19.0656 0H8.31625C7.80187 0 7.09937 0.351313 6.75375 0.780313L2.18062 6.4735H8.05313L11.6925 1.87275H18.7106L16.8256 4.33606H19.0656C19.58 4.33606 20 3.86031 20 3.28006V1.056C20 0.47575 19.58 0 19.0656 0ZM17.5069 2.77062L17.1944 3.16112L17.1125 3.26837L17.5069 2.77062Z" fill="#FFC700"/>
</svg>
