<svg width="20" height="9" viewBox="0 0 20 9" fill="none" xmlns="http://www.w3.org/2000/svg">
<path d="M7.59352 0.115263L4.975 6.42774H3.26672L1.97812 1.38979C1.9 1.08024 1.83211 0.966316 1.59438 0.835421C1.20578 0.622105 0.564062 0.422605 0 0.2985L0.0380469 0.115263H2.78836C3.13836 0.115263 3.45352 0.350763 3.53367 0.758526L4.21453 4.41166L5.89547 0.115263H7.59352ZM9.90289 0.115263L8.56672 6.42774H6.95047L8.2868 0.115263H9.90297H9.90289ZM14.287 4.36674C14.2937 2.70103 12.0077 2.60858 12.0227 1.86434C12.0281 1.63808 12.2414 1.39721 12.7083 1.33563C12.9395 1.30539 13.5784 1.28132 14.3021 1.61826L14.5852 0.278842C14.1964 0.136737 13.696 0 13.0736 0C11.4759 0 10.3521 0.857526 10.3431 2.08642C10.3327 2.99542 11.1459 3.50203 11.7574 3.80479C12.3873 4.11395 12.5986 4.31266 12.5957 4.58897C12.5912 5.01253 12.0926 5.20003 11.6291 5.20697C10.8163 5.22 10.3451 4.98497 9.96922 4.80805L9.67586 6.19184C10.054 6.36695 10.7509 6.51908 11.4727 6.52682C13.1711 6.52682 14.282 5.67916 14.287 4.36682V4.36674ZM18.5057 6.42774H20L18.6945 0.115263H17.3159C17.0049 0.115263 16.7436 0.297632 16.6277 0.577974L14.2027 6.42774H15.8998L16.2364 5.48479H18.3098L18.5058 6.42774H18.5057ZM16.7018 4.19124L17.5527 1.82068L18.0416 4.19124H16.7017H16.7018ZM11.9713 8.16529H11.3146V8.78289H12.0491V8.96858H11.0934V7.25526H12.0115V7.44095H11.3146V7.98229H11.9712V8.16545L11.9713 8.16529ZM12.3884 7.16376H12.6097V8.9685H12.3884V7.16376ZM13.168 8.394C13.173 8.6966 13.3617 8.82111 13.5855 8.82111C13.7441 8.82111 13.8421 8.79316 13.9227 8.75763L13.9629 8.91782C13.8849 8.95334 13.7491 8.99653 13.5553 8.99653C13.1806 8.99653 12.9568 8.74492 12.9568 8.37371C12.9568 8.00266 13.173 7.71276 13.5277 7.71276C13.9277 7.71276 14.0309 8.06368 14.0309 8.28987C14.0309 8.33558 14.0283 8.36858 14.0232 8.39408H13.168V8.394ZM13.817 8.23389C13.8195 8.09416 13.7591 7.87295 13.5101 7.87295C13.2837 7.87295 13.188 8.07884 13.1704 8.23389H13.817ZM15.2352 8.92532C15.1774 8.95334 15.0491 8.9966 14.8856 8.9966C14.5184 8.9966 14.2794 8.74492 14.2794 8.36866C14.2794 7.98987 14.5359 7.71284 14.9334 7.71284C15.0641 7.71284 15.1798 7.74576 15.2402 7.77892L15.1901 7.94921C15.137 7.92126 15.0541 7.89063 14.9334 7.89063C14.6541 7.89063 14.5033 8.10166 14.5033 8.35603C14.5033 8.64063 14.6844 8.81605 14.9259 8.81605C15.0516 8.81605 15.1346 8.78558 15.1975 8.75763L15.2352 8.92532ZM15.8562 7.44332V7.73818H16.173V7.90839H15.8562V8.57195C15.8562 8.72463 15.899 8.81092 16.0222 8.81092C16.0825 8.81092 16.1178 8.80595 16.1505 8.7956L16.1606 8.96613C16.1178 8.98129 16.0499 8.99653 15.9644 8.99653C15.8612 8.99653 15.7781 8.96092 15.7254 8.90258C15.665 8.83382 15.6398 8.72463 15.6398 8.57968V7.90839H15.4511V7.73818H15.6398V7.50947L15.8563 7.44339L15.8562 7.44332ZM16.4822 8.1221C16.4822 7.97716 16.4795 7.85266 16.4721 7.73818H16.6659L16.676 7.98213H16.6834C16.7388 7.81705 16.8745 7.71276 17.0229 7.71276C17.0456 7.71276 17.0633 7.71537 17.0834 7.71782V7.92892C17.0608 7.92371 17.0382 7.92371 17.0078 7.92371C16.852 7.92371 16.7412 8.04063 16.7111 8.20855C16.7059 8.24304 16.7034 8.27788 16.7035 8.31276V8.96866H16.4822V8.1221ZM18.444 8.34316C18.444 8.79821 18.1295 8.99653 17.8377 8.99653C17.5106 8.99653 17.2541 8.75242 17.2541 8.36361C17.2541 7.95426 17.5233 7.71284 17.8579 7.71284C18.2075 7.71284 18.444 7.96942 18.444 8.34324V8.34316ZM17.4805 8.35595C17.4805 8.62539 17.6314 8.82884 17.8477 8.82884C18.0591 8.82884 18.2175 8.62784 18.2175 8.35082C18.2175 8.14239 18.1144 7.88045 17.8527 7.88045C17.5938 7.88045 17.4805 8.12463 17.4805 8.35595ZM18.7832 8.07118C18.7832 7.94163 18.7805 7.83987 18.773 7.73826H18.9693L18.9819 7.94163H18.9869C19.0473 7.82716 19.1881 7.71284 19.3894 7.71284C19.5578 7.71284 19.8195 7.81453 19.8195 8.23634V8.96858H19.5982V8.25932C19.5982 8.06116 19.5252 7.89576 19.3165 7.89576C19.173 7.89576 19.0598 8.00005 19.0197 8.12455C19.0095 8.15258 19.0045 8.19063 19.0045 8.22884V8.96858H18.7832V8.07118Z" fill="#1A1F71"/>
</svg>
