<svg width="17" height="12" viewBox="0 0 17 12" fill="none" xmlns="http://www.w3.org/2000/svg">
<path d="M3.08983 11.9408V11.1466C3.08983 10.8421 2.88569 10.6436 2.5358 10.6436C2.36089 10.6436 2.17136 10.6965 2.04014 10.8686C1.93814 10.723 1.79238 10.6436 1.57371 10.6436C1.42788 10.6436 1.28218 10.6832 1.16551 10.8289V10.67H0.859375V11.9408H1.16551V11.2392C1.16551 11.0142 1.29673 10.9083 1.50086 10.9083C1.70486 10.9083 1.80699 11.0274 1.80699 11.2392V11.9408H2.11312V11.2392C2.11312 11.0142 2.25882 10.9083 2.44834 10.9083C2.65248 10.9083 2.75448 11.0274 2.75448 11.2392V11.9408H3.08983ZM7.62345 10.67H7.12786V10.2861H6.82173V10.67H6.54475V10.9215H6.82166V11.504C6.82166 11.7953 6.95288 11.9673 7.30277 11.9673C7.43399 11.9673 7.57969 11.9276 7.68182 11.8747L7.5943 11.6364C7.50684 11.6893 7.40484 11.7026 7.33192 11.7026C7.18616 11.7026 7.12786 11.6232 7.12786 11.4907V10.9215H7.62345V10.67ZM10.2183 10.6435C10.0434 10.6435 9.92682 10.723 9.8539 10.8289V10.67H9.54777V11.9408H9.8539V11.226C9.8539 11.0142 9.9559 10.8951 10.1454 10.8951C10.2037 10.8951 10.2766 10.9083 10.3349 10.9215L10.4224 10.6568C10.3641 10.6436 10.2766 10.6436 10.2183 10.6436V10.6435ZM6.29692 10.7759C6.15109 10.6832 5.94702 10.6436 5.72835 10.6436C5.37852 10.6436 5.1453 10.8024 5.1453 11.0539C5.1453 11.2657 5.32021 11.3848 5.62635 11.4246L5.77211 11.4378C5.93248 11.4643 6.01994 11.504 6.01994 11.5702C6.01994 11.6628 5.90333 11.729 5.69919 11.729C5.49513 11.729 5.33476 11.6628 5.23269 11.5967L5.08693 11.8085C5.2473 11.9143 5.46598 11.9673 5.68459 11.9673C6.09278 11.9673 6.32607 11.7953 6.32607 11.5569C6.32607 11.3319 6.13655 11.2127 5.84496 11.1731L5.69919 11.1598C5.56798 11.1465 5.46598 11.1201 5.46598 11.0407C5.46598 10.948 5.56798 10.8951 5.72835 10.8951C5.90333 10.8951 6.07824 10.9612 6.1657 11.001L6.29692 10.7759ZM14.4314 10.6436C14.2564 10.6436 14.1398 10.723 14.0668 10.8289V10.67H13.7607V11.9408H14.0668V11.226C14.0668 11.0142 14.1689 10.8951 14.3584 10.8951C14.4167 10.8951 14.4897 10.9083 14.548 10.9215L14.6354 10.6568C14.5771 10.6436 14.4897 10.6436 14.4314 10.6436ZM10.5245 11.3054C10.5245 11.6893 10.816 11.9673 11.268 11.9673C11.472 11.9673 11.6178 11.9276 11.7635 11.8217L11.6178 11.5967C11.5012 11.6761 11.3846 11.7158 11.2533 11.7158C11.0055 11.7158 10.8306 11.5569 10.8306 11.3054C10.8306 11.0672 11.0055 10.9083 11.2533 10.8951C11.3846 10.8951 11.5012 10.9348 11.6178 11.0142L11.7635 10.7892C11.6178 10.6832 11.472 10.6436 11.268 10.6436C10.816 10.6436 10.5245 10.9215 10.5245 11.3054ZM13.3526 11.3054V10.67H13.0464V10.8289C12.9444 10.7098 12.7986 10.6436 12.6091 10.6436C12.2155 10.6436 11.9094 10.9215 11.9094 11.3054C11.9094 11.6893 12.2155 11.9673 12.6091 11.9673C12.8132 11.9673 12.959 11.9011 13.0464 11.782V11.9408H13.3526V11.3054ZM12.2301 11.3054C12.2301 11.0804 12.3904 10.8951 12.6528 10.8951C12.9006 10.8951 13.0756 11.0672 13.0756 11.3054C13.0756 11.5305 12.9006 11.7158 12.6528 11.7158C12.3904 11.7025 12.2301 11.5305 12.2301 11.3054ZM8.57107 10.6436C8.16287 10.6436 7.87128 10.9083 7.87128 11.3054C7.87128 11.7026 8.1628 11.9673 8.58561 11.9673C8.78968 11.9673 8.99381 11.9143 9.15418 11.7953L9.00835 11.5967C8.89174 11.6761 8.74598 11.729 8.60022 11.729C8.4107 11.729 8.22117 11.6496 8.17741 11.4245H9.21248V11.3187C9.22709 10.9083 8.96466 10.6436 8.571 10.6436H8.57107ZM8.57107 10.8818C8.76052 10.8818 8.89181 10.9878 8.92089 11.1863H8.19202C8.22117 11.0142 8.35239 10.8818 8.57107 10.8818ZM16.1661 11.3054V10.167H15.8599V10.8289C15.7579 10.7098 15.6121 10.6436 15.4226 10.6436C15.029 10.6436 14.7229 10.9215 14.7229 11.3054C14.7229 11.6893 15.029 11.9673 15.4226 11.9673C15.6267 11.9673 15.7725 11.9011 15.8599 11.782V11.9408H16.1661V11.3054ZM15.0436 11.3054C15.0436 11.0804 15.2039 10.8951 15.4664 10.8951C15.7142 10.8951 15.8891 11.0672 15.8891 11.3054C15.8891 11.5305 15.7142 11.7158 15.4664 11.7158C15.2039 11.7025 15.0436 11.5305 15.0436 11.3054ZM4.80995 11.3054V10.67H4.50382V10.8289C4.40175 10.7098 4.25599 10.6436 4.06646 10.6436C3.67287 10.6436 3.36674 10.9215 3.36674 11.3054C3.36674 11.6893 3.67287 11.9673 4.06646 11.9673C4.2706 11.9673 4.41636 11.9011 4.50382 11.782V11.9408H4.80995V11.3054ZM3.67287 11.3054C3.67287 11.0804 3.83325 10.8951 4.09562 10.8951C4.34345 10.8951 4.51843 11.0672 4.51843 11.3054C4.51843 11.5305 4.34345 11.7158 4.09562 11.7158C3.83325 11.7025 3.67287 11.5305 3.67287 11.3054Z" fill="black"/>
<path d="M6.19531 1.01953H10.7873V8.51205H6.19531V1.01953Z" fill="#FF5F00"/>
<path d="M6.48716 4.76557C6.48716 3.24326 7.27434 1.89298 8.48426 1.01928C7.59508 0.383879 6.47262 0 5.24809 0C2.347 0 0 2.13124 0 4.76557C0 7.39984 2.347 9.53113 5.24802 9.53113C6.47255 9.53113 7.59502 9.14726 8.48426 8.5118C7.27434 7.65136 6.48716 6.28788 6.48716 4.76557Z" fill="#EB001B"/>
<path d="M16.9843 4.76557C16.9843 7.39984 14.6373 9.53113 11.7362 9.53113C10.5117 9.53113 9.38925 9.14726 8.5 8.5118C9.72453 7.63815 10.4972 6.28788 10.4972 4.76557C10.4972 3.24326 9.70992 1.89298 8.5 1.01928C9.38918 0.383879 10.5117 0 11.7362 0C14.6373 0 16.9843 2.1445 16.9843 4.76557H16.9843Z" fill="#F79E1B"/>
</svg>
