<svg width="7" height="10" viewBox="0 0 7 10" fill="none" xmlns="http://www.w3.org/2000/svg">
<path d="M5.93723 0.778701C5.55623 0.252807 4.86749 0.0273438 3.98639 0.0273438H1.4292C1.34203 0.0273477 1.25771 0.0650106 1.19142 0.133561C1.12512 0.202112 1.08119 0.297054 1.06753 0.401317L0.00276308 8.57903C-0.018401 8.74029 0.0847123 8.88632 0.219681 8.88632H1.7984L2.19488 5.84092L2.18258 5.93629C2.21083 5.72102 2.36286 5.56225 2.54289 5.56225H3.29309C4.76687 5.56225 5.92085 4.83734 6.25795 2.74036C6.26796 2.67834 6.27662 2.61797 6.28412 2.559C6.24157 2.53172 6.24157 2.53172 6.28412 2.559C6.3845 1.78393 6.28343 1.25635 5.93723 0.778701Z" fill="#27346A"/>
<path d="M2.79896 2.27979C2.84212 2.25491 2.88933 2.24201 2.93713 2.24205H4.94192C5.17932 2.24205 5.40075 2.26075 5.60309 2.30019C5.65971 2.31112 5.71604 2.32418 5.77199 2.33933C5.8513 2.36052 5.92969 2.38646 6.00688 2.41705C6.10635 2.45728 6.19899 2.50413 6.28414 2.559C6.38449 1.78363 6.28343 1.25635 5.93723 0.778701C5.55601 0.252807 4.86749 0.0273438 3.98639 0.0273438H1.42899C1.24893 0.0273438 1.09575 0.186085 1.06753 0.401317L0.00276323 8.57873C-0.0184008 8.74026 0.0847125 8.88608 0.219462 8.88608H1.7984L2.62098 2.5692C2.62907 2.50711 2.64949 2.44833 2.6805 2.39791C2.7115 2.3475 2.75216 2.30696 2.79896 2.27979Z" fill="#27346A"/>
<path d="M6.25849 2.73995C5.9214 4.83664 4.76744 5.56184 3.29364 5.56184H2.54322C2.36318 5.56184 2.21113 5.72061 2.18315 5.93588L1.6899 9.72247C1.67147 9.86359 1.76159 9.99147 1.8795 9.99147H3.21032C3.28655 9.99145 3.36028 9.95849 3.41824 9.89852C3.4762 9.83855 3.51458 9.7555 3.5265 9.66432L3.53946 9.5822L3.79028 7.65717L3.80644 7.55078C3.81835 7.4596 3.85674 7.37656 3.91469 7.31659C3.97264 7.25662 4.04636 7.22366 4.12259 7.22363H4.32176C5.61094 7.22363 6.62039 6.58939 6.91537 4.75508C7.0385 3.98853 6.97479 3.34853 6.64907 2.89899C6.55028 2.76283 6.42759 2.65038 6.28466 2.55859C6.27692 2.61787 6.26853 2.67793 6.25849 2.73995Z" fill="#2790C3"/>
<path d="M5.93212 2.38787C5.87956 2.36928 5.8265 2.35283 5.77303 2.33853C5.71705 2.32362 5.66073 2.31066 5.60413 2.29966C5.40157 2.25995 5.1803 2.24121 4.94269 2.24121H2.93814C2.89031 2.24108 2.84306 2.25409 2.79998 2.27926C2.75312 2.30635 2.71242 2.34686 2.6814 2.39729C2.65038 2.44771 2.62998 2.50654 2.62197 2.56866L2.1959 5.84012L2.18359 5.93548C2.21162 5.72022 2.36365 5.56144 2.54371 5.56144H3.29413C4.76791 5.56144 5.92187 4.83654 6.25896 2.73956C6.26899 2.67754 6.27742 2.61744 6.28516 2.5582C6.19979 2.50363 6.10739 2.45648 6.00789 2.41651C5.98278 2.40643 5.95753 2.39688 5.93215 2.38787" fill="#1F264F"/>
</svg>
