<?xml version="1.0" encoding="utf-8"?>
<!-- Generator: Adobe Illustrator 23.0.3, SVG Export Plug-In . SVG Version: 6.00 Build 0)  -->
<svg version="1.1" id="Layer_1" xmlns="http://www.w3.org/2000/svg" xmlns:xlink="http://www.w3.org/1999/xlink" x="0px" y="0px"
	 viewBox="0 0 168.2 92.3" style="enable-background:new 0 0 168.2 92.3;" xml:space="preserve">
<style type="text/css">
	.st0{fill:#CB2030;}
	.st1{fill-rule:evenodd;clip-rule:evenodd;fill:#FFFFFF;}
</style>
<path class="st0" d="M76,34.9C65.2,46.8,52.5,57.7,37.2,63.1C12.1,72,9.4,48.6,18.8,31.1l-11,3.3C-5.2,60.2-1.9,84.6,19,86.1h4.2
	c5.5-0.4,12.1-2.1,19.6-5.5C77.3,64.2,105.2,34.1,121.9,0h-0.1C79.2,12,101.9,5.2,76,34.9z"/>
<path class="st0" d="M35.3,45.1C47,39.7,56.4,29.6,62,18.1L23.7,29.6l0,0C17.8,40.1,22.3,51.5,35.3,45.1z"/>
<path class="st1" d="M82.8,62.5c1.6,0,3.3,0,4.9,0c0,2.2,0,4.5,0,6.7c2.6-0.7,5.4-0.4,7.8,0.8c2,1.1,3.5,3.1,3.8,5.3
	c0.4,2.2,0.2,4.5-0.8,6.5c-1,1.8-2.7,3.1-4.6,3.6c-2.6,0.6-5.2,0.7-7.8,0.2c-1.1-0.2-2.3-0.5-3.3-0.9C82.8,77.3,82.8,69.9,82.8,62.5
	L82.8,62.5z M87.7,72.4c0,3.3,0,6.6,0,9.9c1.2,0.4,2.5,0.4,3.7,0.2c1.3-0.3,2.3-1.2,2.7-2.4c0.6-1.5,0.6-3.1,0.2-4.6
	c-0.3-1.3-1.1-2.4-2.3-2.9C90.7,72,89.2,72,87.7,72.4z M159.7,65.6c1.6-0.4,3.2-0.8,4.8-1.2v4.8h3.6v3.2c-1.2-0.1-2.4,0-3.6,0v7.9
	c-0.1,0.6,0.2,1.3,0.7,1.6c0.9,0.4,2,0.5,2.9,0.1v3.5c-1.6,0.5-3.3,0.6-5,0.2c-1.2-0.2-2.3-0.9-2.9-2c-0.6-1.3-0.8-2.8-0.6-4.3v-7
	c-0.8,0-1.7,0.1-2.5,0c0-1,0-2.1,0-3.1h2.5v-3.6L159.7,65.6z M107.3,69c2.2-0.3,4.4-0.2,6.5,0.4c1.8,0.5,3.3,1.6,4.4,3.1
	c1.2,2,1.6,4.4,1.2,6.7c-0.3,2.2-1.6,4.2-3.5,5.4c-2.5,1.4-5.5,1.7-8.2,1v6.7h-4.9c0-7.4,0-14.8,0-22.2
	C104.2,69.5,105.7,69.2,107.3,69L107.3,69z M107.6,72.5c0,3.3,0,6.6,0,9.9c1.4,0.4,3,0.4,4.4-0.1c1-0.5,1.8-1.4,2.1-2.5
	c0.4-1.3,0.5-2.6,0.2-3.9c-0.2-1.4-1.1-2.6-2.3-3.2C110.7,72,109.1,72,107.6,72.5L107.6,72.5z M128.8,69c2.5-0.5,5.2,0,7.3,1.4
	c1.7,1.2,2.8,3.1,3.1,5.2c0.5,2.4,0,4.9-1.3,7c-1.2,1.8-3.2,3-5.3,3.3c-2.2,0.4-4.5,0.1-6.5-0.8c-2-1-3.5-2.8-4-4.9
	c-0.5-2-0.4-4.2,0.3-6.2c0.6-1.7,1.8-3.1,3.4-4C126.8,69.5,127.7,69.1,128.8,69L128.8,69z M129.8,72.3c-0.9,0.2-1.6,0.7-2.1,1.5
	c-0.6,1-0.9,2.1-0.9,3.3c-0.1,1.4,0.2,2.9,0.9,4.1c1.2,1.6,3.5,2,5.1,0.8c0.3-0.2,0.6-0.5,0.9-0.9c0.7-1.4,1-2.9,0.8-4.5
	c0-1.3-0.5-2.5-1.3-3.5C132.3,72.3,131,72,129.8,72.3L129.8,72.3z M142.9,70.8c1.2-1.1,2.8-1.8,4.5-1.9c2.6-0.3,5.1,0.1,7.5,1.1
	c-0.5,1-1,1.9-1.5,2.9c-1.4-0.7-2.9-1-4.4-0.9c-0.8,0-1.5,0.4-2,1c-0.3,0.6-0.2,1.3,0.4,1.8c0.8,0.5,1.6,0.9,2.5,1.1
	c1.6,0.4,3.1,1.1,4.4,2.1c1.6,1.7,1.6,4.4-0.1,6.1l0,0c-1.3,1.1-2.9,1.7-4.6,1.8c-2.8,0.3-5.6,0-8.3-1.1c0.5-1.1,1.1-2.1,1.6-3.2
	c1.1,0.5,2.3,0.8,3.5,1c1,0.2,2.1,0.1,3-0.4c0.6-0.3,0.9-0.8,0.9-1.5c0-0.8-0.7-1.3-1.3-1.6c-1.4-0.6-2.8-0.9-4.2-1.5
	c-1.1-0.4-2-1.2-2.6-2.2C141.4,74,141.7,72.1,142.9,70.8L142.9,70.8z"/>
</svg>
