<svg id="Calque_1" data-name="Calque 1" xmlns="http://www.w3.org/2000/svg" viewBox="0 0 189.85 157.21"><defs><style>.cls-1{fill:#FFFFFF;}</style></defs><path class="cls-1" d="M346.32,210.31a45.46,45.46,0,0,0-81.42-20.63l-13,17.47-13-17.47A45.45,45.45,0,0,0,166,244l49.44,66.3a45.32,45.32,0,0,0,27.78,17.44l.55.1.14,0,1.46.25,1.08.13.42.05.65.08,1.13.08.41,0,.64,0,.93,0h.52l.75,0,.76,0h.52c.31,0,.61,0,.92,0l.65,0,.4,0,1.13-.08.65-.08.43-.05c.36,0,.71-.08,1.09-.14s1-.15,1.44-.24l.23,0,.46-.08a45.37,45.37,0,0,0,27.79-17.44L337.78,244A45.18,45.18,0,0,0,346.32,210.31ZM219,295.06l-7.39-9.92h80.61l-7.4,9.92Zm-16.32-21.89-6.41-8.59H307.51l-6.4,8.59ZM187.3,252.61l-7.59-10.18,144.48-.22-7.75,10.4ZM332,230.23l-160.2.24a33,33,0,0,1-2.73-10.16h77.66l5.12,6.87,5.13-6.87h77.63A33.25,33.25,0,0,1,332,230.23Zm-66.09-21.89,6.4-8.59h57.78a33.26,33.26,0,0,1,3.58,8.59Zm30.58-24.62a33.17,33.17,0,0,1,21.41,4.06H284.73A33.59,33.59,0,0,1,296.51,183.72Zm-94.17-.35a35.07,35.07,0,0,1,4.89.35A33.57,33.57,0,0,1,219,187.78H185.86A33,33,0,0,1,202.34,183.37Zm-28.73,16.38h57.81l6.4,8.59H170A33.49,33.49,0,0,1,173.61,199.75ZM258.19,316l-.44.08-1,.18-.73.08-.88.11-.75,0-.86.07H253l-1.08,0-1.07,0h-.55l-.86-.07-.75,0-.87-.11-.71-.08c-.36-.05-.71-.12-1.12-.19l-.47-.08a33.34,33.34,0,0,1-17.05-9h46.9A33.44,33.44,0,0,1,258.19,316Z" transform="translate(-156.95 -171.39)"/></svg>