<svg id="Calque_1" data-name="Calque 1" xmlns="http://www.w3.org/2000/svg" viewBox="0 0 393.07 393"><defs><style>.cls-1{fill:#fff;}</style></defs><path class="cls-1" d="M106.14,245.18a1.32,1.32,0,0,0-.76.62,2.92,2.92,0,0,0-.33.94,3.08,3.08,0,0,0,0,1,4.83,4.83,0,0,0,.21.92,1.76,1.76,0,0,0,1.2,1.11,2.6,2.6,0,0,0,1.72,0l18.18-6.32a1.67,1.67,0,0,0,1.2-1.16,2.88,2.88,0,0,0-.09-1.69,3.2,3.2,0,0,0-.41-.8,3.4,3.4,0,0,0-.64-.72,2.47,2.47,0,0,0-.81-.44,1.45,1.45,0,0,0-.92,0l-6.24,2.17-.62-.25-8.66-24.91a2.31,2.31,0,0,0-.86-1.2,3,3,0,0,0-1.3-.49,5.57,5.57,0,0,0-1.47,0,7.26,7.26,0,0,0-1.37.32,7.62,7.62,0,0,0-1.23.54,9.25,9.25,0,0,1-1.24.53,7.35,7.35,0,0,1-1.73.39,7.9,7.9,0,0,0-1.73.4,5.28,5.28,0,0,0-2,1.24,2,2,0,0,0-.38,2.16,2.33,2.33,0,0,0,.46.86,1.32,1.32,0,0,0,.57.36,2.12,2.12,0,0,0,.73.06q.41,0,.93-.06h1.24a3.75,3.75,0,0,0,1.3-.27l.75-.26a2.78,2.78,0,0,0,.49-.25c.24-.13.49-.28.75-.44l.71-.46a5.25,5.25,0,0,0,.44-.31c.1,0,.38,0,.83.11s.7.2.76.38l2.74,7.87,0,1,4.9,14.09-.14.36Z" transform="translate(-53.4 -53.99)"/><path class="cls-1" d="M130.48,238.56A10.1,10.1,0,0,0,134.6,240a10.24,10.24,0,0,0,4.65-.56,14,14,0,0,0,4.44-2.53,8.24,8.24,0,0,0,2.69-4.21c.18-.7.33-1.39.44-2.08a4.29,4.29,0,0,0-.21-2.11,1.45,1.45,0,0,0-.82-.92,1.71,1.71,0,0,0-1.3,0,2.21,2.21,0,0,0-1.13.82,5.21,5.21,0,0,0-.64,1.27,14.64,14.64,0,0,0-.44,1.47,5.19,5.19,0,0,1-.51,1.34,3.9,3.9,0,0,1-1.2,1.23,4.25,4.25,0,0,0-1.25,1.25l-.63.25-.63.24a6.36,6.36,0,0,1-2.77.36,7.18,7.18,0,0,1-2.55-.76,7.06,7.06,0,0,1-2.11-1.68,7.38,7.38,0,0,1-1.4-2.42l-.1-.39c0-.2-.08-.31-.09-.34l.13-.2c.67-.31,1.24-.55,1.7-.73l1.42-.54c.48-.19.89-.34,1.23-.46l1.85-.67q1.33-.49,2.79-1l2.85-1,1.86-.62a12.25,12.25,0,0,0,1.33-.88,2.23,2.23,0,0,0,.8-1.33l-.12-.41c0-.21-.09-.34-.11-.41a7.39,7.39,0,0,0-.64-1.23c-.33-.53-.68-1.07-1.07-1.62a17.78,17.78,0,0,0-1.15-1.5,6,6,0,0,0-.86-.88,18.61,18.61,0,0,0-5.13-2.35,9.14,9.14,0,0,0-5.57.33l-1.07.34a2.41,2.41,0,0,0-1,.58,4.5,4.5,0,0,0-.42.38c-.2.19-.41.41-.64.65l-.67.68a5.09,5.09,0,0,0-.41.46,8.21,8.21,0,0,0-1.8,3.07,12.47,12.47,0,0,0-.61,3.48A15.84,15.84,0,0,0,124,228a24.12,24.12,0,0,0,.92,3.47,14.18,14.18,0,0,0,2.23,4.15A12.08,12.08,0,0,0,130.48,238.56ZM128,225.86l-.1-.28a4,4,0,0,1-.15-2.24,5.44,5.44,0,0,1,.91-1.93,6.43,6.43,0,0,1,1.6-1.47,8.9,8.9,0,0,1,1.93-1,9.34,9.34,0,0,1,2-.45,7.31,7.31,0,0,1,2.09,0,4.36,4.36,0,0,1,1.83.73,3.27,3.27,0,0,1,1.22,1.71,2.55,2.55,0,0,1,.12.33.91.91,0,0,1,.07.34,1.81,1.81,0,0,1-.19.3.51.51,0,0,1-.21.21l-10.86,3.77C128.07,226,128,226,128,225.86Z" transform="translate(-53.4 -53.99)"/><path class="cls-1" d="M148.57,212.9a3.89,3.89,0,0,1,.69-.71l.89-.34.84-.32,1-.36a5.51,5.51,0,0,1,.72-.19q.34-.07.72-.12a10.25,10.25,0,0,1,1.1-.09,2.78,2.78,0,0,1,2,.61,16.75,16.75,0,0,1,1.63,1.52,11.93,11.93,0,0,0,1.51,1.39,1.6,1.6,0,0,0,1.6.29,1.7,1.7,0,0,0,1.18-1.38,3.59,3.59,0,0,0-.11-1.89l-.19-.56c-.06-.19-.2-.52-.4-1s-.4-1-.61-1.52-.4-1.06-.58-1.54-.31-.81-.38-1a1.47,1.47,0,0,0-.89-1,1.82,1.82,0,0,0-1.37-.07,1.35,1.35,0,0,0-.69.45,2.15,2.15,0,0,0-.33.64q-.1.35-.21.75a2.12,2.12,0,0,1-.34.75,11,11,0,0,0-3.69-.37,27.09,27.09,0,0,0-3.7.47l-.42.15a4.38,4.38,0,0,0-1.14.58,6.89,6.89,0,0,0-1,.78,9.15,9.15,0,0,0-2.62,3.6,6.42,6.42,0,0,0,.17,4.36,8.61,8.61,0,0,0,1.85,3.25,5.5,5.5,0,0,0,2.41,1.48,7.27,7.27,0,0,0,2.86.22,30.56,30.56,0,0,0,3.16-.52l3.28-.72a17,17,0,0,1,3.28-.41,2.15,2.15,0,0,1,1.34.44,2.79,2.79,0,0,1,.7,1.18,3.44,3.44,0,0,1,.12,2.09,4.33,4.33,0,0,1-.93,1.71,6.31,6.31,0,0,1-1.6,1.32,9.88,9.88,0,0,1-1.92.91,5.69,5.69,0,0,1-2.12.34,6.76,6.76,0,0,1-1.9-.39,8.71,8.71,0,0,1-1.76-.92c-.58-.38-1.16-.78-1.77-1.2a1.84,1.84,0,0,1-.64-.8,1.69,1.69,0,0,0-.7-.79,1.23,1.23,0,0,0-.69-.1,4.64,4.64,0,0,0-.66.15,2,2,0,0,0-1,.79,1.37,1.37,0,0,0-.15,1.24l1.93,5.54a2.39,2.39,0,0,0,0,.86c.06.21.14.48.25.79a4.24,4.24,0,0,0,.93,1.54,1.43,1.43,0,0,0,1.67.34,1.82,1.82,0,0,0,1.11-.8,2.3,2.3,0,0,0,.27-1.07c0-.37,0-.71-.05-1a.89.89,0,0,1,.2-.72,5.75,5.75,0,0,1,1.84.6,3.47,3.47,0,0,0,1.82.39l.52,0,.74,0,.72-.07a1.55,1.55,0,0,0,.42-.07l.53-.15.76-.24a9.39,9.39,0,0,0,3-1.75,9.56,9.56,0,0,0,2.22-2.69,9.05,9.05,0,0,0,1.09-3.3,7.77,7.77,0,0,0-.39-3.55,6.64,6.64,0,0,0-2-2.92,12.21,12.21,0,0,0-3-1.88,25.68,25.68,0,0,0-5.63.33,27.89,27.89,0,0,0-5.49,1.48,3.17,3.17,0,0,1-1.75-.28,2.48,2.48,0,0,1-1.12-1.46,2.28,2.28,0,0,1-.09-1,3.35,3.35,0,0,1,.26-1.07A4.24,4.24,0,0,1,148.57,212.9Z" transform="translate(-53.4 -53.99)"/><path class="cls-1" d="M210.55,208.11l-2.75-7.91a3.22,3.22,0,0,0-.23-1.36c-.19-.48-.34-.9-.47-1.27l-.51-1.45a2.57,2.57,0,0,0-.24-.47c-.12-.22-.27-.45-.42-.69l-.46-.71c-.15-.22-.25-.38-.32-.46a4.4,4.4,0,0,0-1.2-1.11,10.89,10.89,0,0,0-1.88-1,11.6,11.6,0,0,0-2-.66,3,3,0,0,0-1.61,0l-7.22,2.41a2.19,2.19,0,0,0-1.16.9c-.27.43-.54.83-.79,1.2s-.61.87-.91,1.34a8.27,8.27,0,0,0-.71,1.43,5.53,5.53,0,0,0-.33,1.49,4.21,4.21,0,0,0,.24,1.6,3.55,3.55,0,0,0,1.82,2.1,3.46,3.46,0,0,0,2.81.13,3,3,0,0,0,1.43-.94,2.82,2.82,0,0,0,.55-1.3,5,5,0,0,0,0-1.45c-.07-.5-.14-1-.19-1.38a7.68,7.68,0,0,1-.09-1.07.55.55,0,0,1,.38-.58l4.41-1.53a3.85,3.85,0,0,1,.71.06l1,.13a2.39,2.39,0,0,1,1.42.77,4.37,4.37,0,0,1,.81,1.41,1.55,1.55,0,0,1-.61,1.89,13,13,0,0,1-2.64,1.5l-3.58,1.58a12.59,12.59,0,0,0-3.38,2.18,7,7,0,0,0-2,3.28,8,8,0,0,0,.43,4.88,8.79,8.79,0,0,0,2.21,3.57,7.56,7.56,0,0,0,3.77,1.83c.3.06.61.14.92.22a1.58,1.58,0,0,0,1,0l4.23-1.47a4.24,4.24,0,0,0,1.45-.84,10.18,10.18,0,0,0,1.19-1.26c.37-.46.72-.92,1.07-1.4a12.34,12.34,0,0,1,1.06-1.26l.24-.08a.84.84,0,0,1,.66,0,3.13,3.13,0,0,1,.66.38l.64.46a1.23,1.23,0,0,0,.64.27,6.41,6.41,0,0,0,1.71.23,5.3,5.3,0,0,0,1.63-.33,4,4,0,0,0,1.81-1.21,5.2,5.2,0,0,0,1-1.85,7,7,0,0,0,.27-2.17,7.18,7.18,0,0,0-.39-2.18,5.52,5.52,0,0,0-.43-.93,3.21,3.21,0,0,0-.65-.8,2.54,2.54,0,0,0-.85-.5,1.63,1.63,0,0,0-1,0c-.65.23-1,.6-1.06,1.11a6.15,6.15,0,0,0,.07,1.64,12.49,12.49,0,0,1,.18,1.59.9.9,0,0,1-.71,1C211.38,209.28,210.86,209,210.55,208.11Zm-6.87,2.8-.36.39a2.32,2.32,0,0,0-.35.44c-.11.1-.23.23-.37.38a1.26,1.26,0,0,1-.25.25L197.56,214a1.33,1.33,0,0,1-1,0,2.81,2.81,0,0,1-.92-.6,5.09,5.09,0,0,1-.75-.87,3.58,3.58,0,0,1-.46-.84,3.2,3.2,0,0,1-.07-1.35,8.77,8.77,0,0,1,.23-1.24,1.54,1.54,0,0,1,.82-1.12c.74-.4,1.48-.76,2.23-1.09s1.47-.69,2.18-1.08a6.75,6.75,0,0,0,.73-.38l1.26-.7,1.26-.7a5.84,5.84,0,0,1,.73-.39l.08-.08a.14.14,0,0,1,.11,0,.84.84,0,0,1,.21,0h.21l.2.57a8,8,0,0,1,.53,3.5A6.91,6.91,0,0,1,203.68,210.91Z" transform="translate(-53.4 -53.99)"/><path class="cls-1" d="M216.17,182.84a7.64,7.64,0,0,1-1.52.72c-.53.18-1.05.38-1.55.59a2.31,2.31,0,0,0-1.16,1c-.26.47-.5,1-.73,1.46a2,2,0,0,0-.05,1.59,2.44,2.44,0,0,0,.82,1.08,1.27,1.27,0,0,0,1.29.29l5.91-2.05,1.81,5.2a9,9,0,0,0,.69,3.49c.48,1.17.91,2.3,1.28,3.39a14,14,0,0,0,2,3.92,7.42,7.42,0,0,0,3.65,2.41,1.1,1.1,0,0,0,.33.05,4.9,4.9,0,0,1,.54,0l.56.07a1,1,0,0,0,.32,0l1,.3a2.89,2.89,0,0,0,1.47,0c.26-.06.62-.17,1.09-.33a6.17,6.17,0,0,0,2.85-2,8.29,8.29,0,0,0,1.51-3,10.7,10.7,0,0,0,.35-3.46,12.51,12.51,0,0,0-.66-3.4,3.9,3.9,0,0,0-1.11-1.67,1.8,1.8,0,0,0-1.93-.28,1.58,1.58,0,0,0-1,1,4.32,4.32,0,0,0-.19,1.57q0,.87.15,1.86a10.32,10.32,0,0,1,0,1.92,3.87,3.87,0,0,1-.54,1.69,3,3,0,0,1-1.6,1.16,1.78,1.78,0,0,1-1,0,4.93,4.93,0,0,1-1.12-.42,4.87,4.87,0,0,1-1-.66,2,2,0,0,1-.55-.76l-4.52-13,.38-.72a2,2,0,0,1,.56-.27c.36-.15.63-.25.82-.31a8.54,8.54,0,0,1,2.48-.52,8.07,8.07,0,0,0,2.29-.45,2.08,2.08,0,0,0,1.29-1.22,2.54,2.54,0,0,0,0-1.82,3,3,0,0,0-1.34-1.59,2.4,2.4,0,0,0-2.08-.23,15.37,15.37,0,0,0-1.81.77,16.63,16.63,0,0,1-1.87.78l-1,.36a2.25,2.25,0,0,1-.67.18l-.45-.22a2,2,0,0,1-.26-.6c-.13-.37-.23-.66-.29-.85a20.13,20.13,0,0,1-.64-2.21,20.28,20.28,0,0,0-.62-2.17,5.88,5.88,0,0,0-1-1.85c-.39-.48-1-.56-1.95-.25s-1.41.8-1.5,1.45a5.17,5.17,0,0,0,.2,2.16c.22.79.46,1.57.74,2.36a3.58,3.58,0,0,1,.18,2.05A2.11,2.11,0,0,1,216.17,182.84Z" transform="translate(-53.4 -53.99)"/><path class="cls-1" d="M243.93,189.94l1.42-.54c.48-.19.89-.34,1.24-.46l1.84-.67c.89-.32,1.82-.66,2.79-1l2.85-1c.9-.29,1.52-.5,1.86-.62a12.25,12.25,0,0,0,1.33-.88,2.23,2.23,0,0,0,.8-1.33c0-.06-.06-.2-.11-.41l-.12-.41a7,7,0,0,0-.64-1.22c-.32-.54-.68-1.08-1.06-1.63s-.77-1.05-1.16-1.5a6,6,0,0,0-.86-.88,18.91,18.91,0,0,0-5.13-2.35,9.14,9.14,0,0,0-5.57.33c-.34.12-.7.23-1.06.34a2.38,2.38,0,0,0-1,.58c-.08.06-.22.19-.42.38s-.41.41-.64.65-.46.46-.66.68a4.23,4.23,0,0,0-.42.46,8.21,8.21,0,0,0-1.8,3.07,12.84,12.84,0,0,0-.61,3.48,16.42,16.42,0,0,0,.28,3.61,24.12,24.12,0,0,0,.92,3.47,14.41,14.41,0,0,0,2.23,4.15,12.08,12.08,0,0,0,3.3,3,10.14,10.14,0,0,0,8.77.85,13.83,13.83,0,0,0,4.44-2.53,8.22,8.22,0,0,0,2.69-4.22c.18-.69.33-1.38.44-2.07a4.18,4.18,0,0,0-.21-2.11,1.45,1.45,0,0,0-.82-.92,1.69,1.69,0,0,0-1.29,0,2.2,2.2,0,0,0-1.14.82,5.21,5.21,0,0,0-.64,1.27c-.17.48-.31,1-.44,1.47a5.19,5.19,0,0,1-.51,1.34,3.7,3.7,0,0,1-1.2,1.23,4.38,4.38,0,0,0-1.25,1.25l-.62.25-.63.24a6.38,6.38,0,0,1-2.77.36,7.3,7.3,0,0,1-2.56-.76,7.18,7.18,0,0,1-2.11-1.68,7.36,7.36,0,0,1-1.39-2.42c0-.07-.06-.2-.11-.39s-.08-.31-.09-.34l.14-.2C242.9,190.36,243.47,190.12,243.93,189.94Zm-2.67-3.31c-.13.05-.21,0-.24-.07s-.08-.22-.1-.28a3.86,3.86,0,0,1-.14-2.24,5.12,5.12,0,0,1,.91-1.93,6.22,6.22,0,0,1,1.59-1.47,8.9,8.9,0,0,1,1.93-1,9.3,9.3,0,0,1,2-.45,7.24,7.24,0,0,1,2.08,0,4.31,4.31,0,0,1,1.83.73,3.34,3.34,0,0,1,1.23,1.71l.11.33a.77.77,0,0,1,.07.34,1.69,1.69,0,0,1-.18.3.58.58,0,0,1-.22.21Z" transform="translate(-53.4 -53.99)"/><path class="cls-1" d="M275,186l-8.66-24.9a2.31,2.31,0,0,0-.86-1.2,3,3,0,0,0-1.3-.49,5.57,5.57,0,0,0-1.47,0,7.26,7.26,0,0,0-1.37.32,8.59,8.59,0,0,0-1.23.53,8.15,8.15,0,0,1-1.24.54,7.88,7.88,0,0,1-1.73.39,8.5,8.5,0,0,0-1.73.39,5.3,5.3,0,0,0-2,1.25A1.94,1.94,0,0,0,253,165a2.33,2.33,0,0,0,.46.86,1.22,1.22,0,0,0,.57.35,1.89,1.89,0,0,0,.73.07q.4,0,.93-.06h1.24a3.75,3.75,0,0,0,1.3-.27l.75-.26a3.76,3.76,0,0,0,.49-.25c.24-.13.49-.28.75-.44l.71-.46.44-.31c.11,0,.38,0,.83.11s.7.2.76.38l2.74,7.87,0,1,4.89,14.09-.13.36-7.19,2.5a1.34,1.34,0,0,0-.76.61,3.09,3.09,0,0,0-.33,2,4.83,4.83,0,0,0,.21.92,1.76,1.76,0,0,0,1.2,1.11,2.6,2.6,0,0,0,1.72,0l18.18-6.32a1.69,1.69,0,0,0,1.2-1.17,2.89,2.89,0,0,0-.09-1.69,3.33,3.33,0,0,0-.41-.79,3.17,3.17,0,0,0-.64-.72,2.47,2.47,0,0,0-.81-.44,1.36,1.36,0,0,0-.91,0l-6.25,2.17Z" transform="translate(-53.4 -53.99)"/><path class="cls-1" d="M286.56,182.47a1.88,1.88,0,0,0-1.34,1.51,3.82,3.82,0,0,0,.12,2.08,2.13,2.13,0,0,0,1,1.22,1.76,1.76,0,0,0,1.54.11l16-5.57a1.27,1.27,0,0,0,.92-1.07,2.94,2.94,0,0,0-.12-1.46,4.14,4.14,0,0,0-.4-.78,3.37,3.37,0,0,0-.69-.77,3.31,3.31,0,0,0-.87-.54,1.22,1.22,0,0,0-.88,0l-5,1.73-.38-.18-6.07-17.47A1.78,1.78,0,0,0,289,160a3.41,3.41,0,0,0-1.84.07,6.92,6.92,0,0,0-1.07.47,6.56,6.56,0,0,1-1.08.48,11.57,11.57,0,0,1-1.6.45,13.35,13.35,0,0,0-1.61.46,9.71,9.71,0,0,0-1.12.47,4.56,4.56,0,0,0-1.08.7,2.44,2.44,0,0,0-.69,1,1.86,1.86,0,0,0,0,1.33,3.8,3.8,0,0,0,.41.8,3.35,3.35,0,0,0,.64.71,2.7,2.7,0,0,0,.81.45,1.45,1.45,0,0,0,.92,0l5.49-1.91,3.59,10.32a1.82,1.82,0,0,0,.07.5,2.36,2.36,0,0,1,.07.5c0,.12.11.34.2.66s.18.65.27,1,.18.69.27,1a6.76,6.76,0,0,0,.21.66l-.17.58Z" transform="translate(-53.4 -53.99)"/><path class="cls-1" d="M283.51,158a3,3,0,0,0,2.81.28,3.88,3.88,0,0,0,2.06-1.64,2.87,2.87,0,0,0,.26-2.59,4.58,4.58,0,0,0-.75-1.32,5.21,5.21,0,0,0-1.16-1,3.64,3.64,0,0,0-1.4-.57,3.11,3.11,0,0,0-1.51.13,3.25,3.25,0,0,0-2,1.74,3.46,3.46,0,0,0-.09,2.61A4.67,4.67,0,0,0,283.51,158Z" transform="translate(-53.4 -53.99)"/><path class="cls-1" d="M318.19,155.16a19.1,19.1,0,0,0-5.14-2.35,9.14,9.14,0,0,0-5.57.33l-1.06.34a2.38,2.38,0,0,0-1,.58c-.08.06-.22.19-.42.38l-.64.65c-.24.24-.46.46-.66.68a4.23,4.23,0,0,0-.42.46,8.21,8.21,0,0,0-1.8,3.07,12.47,12.47,0,0,0-.61,3.48,16.42,16.42,0,0,0,.28,3.61,24.12,24.12,0,0,0,.92,3.47,14.41,14.41,0,0,0,2.23,4.15,12.23,12.23,0,0,0,3.3,3,10.15,10.15,0,0,0,8.77.85,14,14,0,0,0,4.44-2.53,8.3,8.3,0,0,0,2.7-4.22c.18-.69.32-1.38.43-2.07a4.29,4.29,0,0,0-.2-2.11,1.49,1.49,0,0,0-.83-.92,1.69,1.69,0,0,0-1.29,0,2.24,2.24,0,0,0-1.14.82,5.21,5.21,0,0,0-.64,1.27c-.17.48-.31,1-.44,1.47a5.57,5.57,0,0,1-.5,1.34,3.83,3.83,0,0,1-1.21,1.23,4.38,4.38,0,0,0-1.25,1.25l-.62.25-.63.24a6.38,6.38,0,0,1-2.77.36,7.3,7.3,0,0,1-2.56-.76,7,7,0,0,1-2.1-1.68,7.21,7.21,0,0,1-1.4-2.42c0-.07-.06-.2-.11-.39s-.08-.31-.09-.34l.14-.21c.66-.3,1.23-.54,1.7-.72l1.41-.54c.48-.19.89-.34,1.24-.46l1.84-.67c.89-.32,1.82-.66,2.79-1l2.85-1c.9-.29,1.52-.5,1.86-.62a11.35,11.35,0,0,0,1.33-.88,2.18,2.18,0,0,0,.8-1.33c0-.07-.06-.2-.11-.41l-.12-.41a7,7,0,0,0-.64-1.22c-.32-.54-.68-1.08-1.06-1.63s-.77-1.06-1.15-1.5A7.22,7.22,0,0,0,318.19,155.16Zm-1.79,5.22a.58.58,0,0,1-.22.21l-10.85,3.77c-.13,0-.21,0-.24-.07a2,2,0,0,0-.1-.28,3.86,3.86,0,0,1-.14-2.24,5.12,5.12,0,0,1,.91-1.93,6.22,6.22,0,0,1,1.59-1.47,8.9,8.9,0,0,1,1.93-1,9.3,9.3,0,0,1,2-.45,7.24,7.24,0,0,1,2.08,0,4.4,4.4,0,0,1,1.84.73,3.38,3.38,0,0,1,1.22,1.71l.11.33a.75.75,0,0,1,.07.34A1.69,1.69,0,0,1,316.4,160.38Z" transform="translate(-53.4 -53.99)"/><path class="cls-1" d="M333.26,153.55c.1-.42.22-.82.35-1.2a7.46,7.46,0,0,1,.32-.82c.06-.13.18-.38.37-.76l.58-1.21.58-1.2a4.94,4.94,0,0,1,.42-.77.76.76,0,0,1,.32-.36l.44-.18.33-.11a.27.27,0,0,1,.36.14c.19.43.42.93.71,1.52a8.23,8.23,0,0,0,1.06,1.6,4.55,4.55,0,0,0,1.39,1.12,2.1,2.1,0,0,0,1.71.07,3.32,3.32,0,0,0,2.37-2.2,5.45,5.45,0,0,0-.21-3.24,5.23,5.23,0,0,0-1.27-2.06,5.65,5.65,0,0,0-1.88-1.26,6.11,6.11,0,0,0-2.29-.45,6.91,6.91,0,0,0-2.42.4,7.37,7.37,0,0,0-3.25,2.23,28,28,0,0,0-2.37,3.25l-.09,0a.49.49,0,0,1-.44-.11,3,3,0,0,1-.48-.47l-.43-.56a1.1,1.1,0,0,0-.32-.33,2.74,2.74,0,0,0-1.84-.44,10.1,10.1,0,0,0-2.22.43,23.53,23.53,0,0,0-2.23.79A10.73,10.73,0,0,1,321,148s-.06,0-.15,0l-.15.05a2,2,0,0,0-1.31,1.22,2.56,2.56,0,0,0,0,1.81,2.28,2.28,0,0,0,1.18,1.36,2.73,2.73,0,0,0,1.83.18c.15-.06.43-.13.81-.23s.81-.22,1.25-.36l1.24-.38c.38-.11.65-.19.8-.25l.51.25,2.21,5.44.31.89,1.69,4.57a2.66,2.66,0,0,0,.05.52,4.57,4.57,0,0,0,.09.49c0,.13.1.34.17.65s.16.63.26,1,.19.65.27.94.15.49.19.62l-.12.25-.39.16a5.57,5.57,0,0,1-.54.21,7.17,7.17,0,0,1-1.38.35,8.08,8.08,0,0,0-1.33.33,2.88,2.88,0,0,0-1.59,1.24,2.2,2.2,0,0,0-.14,1.95,2.52,2.52,0,0,0,1.58,1.6,3.34,3.34,0,0,0,2.31,0L336,171a4.16,4.16,0,0,1,.67-.41c.17-.08.38-.16.63-.25a16,16,0,0,1,1.6-.45,13.35,13.35,0,0,0,1.61-.46,15.16,15.16,0,0,0,1.48-.59,5.58,5.58,0,0,0,1.36-.84,2.59,2.59,0,0,0,.83-1.18,2.45,2.45,0,0,0-.09-1.63,2,2,0,0,0-1.49-1.4,3.69,3.69,0,0,0-2.18.1,7.56,7.56,0,0,0-1,.45,6.62,6.62,0,0,1-1,.47,3.78,3.78,0,0,1-.93.21.88.88,0,0,1-.77-.41l-.24-.6c-.12-.28-.23-.57-.36-.88s-.25-.6-.38-.87a4.77,4.77,0,0,1-.24-.55,4,4,0,0,0-.23-.44,2.06,2.06,0,0,0-.29-.43l-1.84-5.31a2,2,0,0,1,0-.81A9.48,9.48,0,0,1,333.26,153.55Z" transform="translate(-53.4 -53.99)"/><path class="cls-1" d="M352.15,142.14a3.66,3.66,0,0,1,.69-.72l.89-.33.84-.32,1-.36a5.61,5.61,0,0,1,.72-.2l.72-.11c.25,0,.62-.07,1.1-.1a2.83,2.83,0,0,1,2,.62,14.67,14.67,0,0,1,1.63,1.52,12.73,12.73,0,0,0,1.51,1.39,1.62,1.62,0,0,0,1.6.29,1.7,1.7,0,0,0,1.18-1.39,3.56,3.56,0,0,0-.11-1.88l-.19-.56c-.06-.19-.2-.52-.4-1s-.4-1-.61-1.52-.4-1.06-.58-1.54-.31-.81-.38-1a1.45,1.45,0,0,0-.89-1,1.87,1.87,0,0,0-1.37-.08,1.48,1.48,0,0,0-.69.45,2.43,2.43,0,0,0-.33.64c-.07.24-.14.49-.21.76a2.12,2.12,0,0,1-.34.75,11,11,0,0,0-3.69-.37,25.61,25.61,0,0,0-3.7.47l-.42.14a5.1,5.1,0,0,0-1.14.58,7.74,7.74,0,0,0-1,.79,9.19,9.19,0,0,0-2.62,3.59,6.45,6.45,0,0,0,.17,4.37,8.61,8.61,0,0,0,1.85,3.25,5.59,5.59,0,0,0,2.41,1.48,7.1,7.1,0,0,0,2.86.21,30.48,30.48,0,0,0,3.16-.51l3.28-.72a17,17,0,0,1,3.28-.41,2.21,2.21,0,0,1,1.34.43,2.93,2.93,0,0,1,.7,1.18,3.45,3.45,0,0,1,.12,2.09,4.37,4.37,0,0,1-.93,1.72,6.75,6.75,0,0,1-1.6,1.32,10.45,10.45,0,0,1-1.92.9,5.71,5.71,0,0,1-2.12.35,6.44,6.44,0,0,1-1.9-.4,8.18,8.18,0,0,1-1.76-.91c-.58-.38-1.16-.78-1.77-1.2A1.87,1.87,0,0,1,354,154a1.62,1.62,0,0,0-.7-.78,1.15,1.15,0,0,0-.69-.1,2.92,2.92,0,0,0-.66.15,1.9,1.9,0,0,0-1,.79,1.35,1.35,0,0,0-.15,1.23l1.93,5.55a2.39,2.39,0,0,0,0,.86c.06.21.14.47.25.79a4.33,4.33,0,0,0,.93,1.54,1.43,1.43,0,0,0,1.67.34,1.8,1.8,0,0,0,1.11-.81,2.26,2.26,0,0,0,.27-1.06c0-.37,0-.71-.05-1a.88.88,0,0,1,.2-.72,6,6,0,0,1,1.84.59,3.38,3.38,0,0,0,1.82.39c.1,0,.28,0,.52,0l.74,0,.72-.07a2.13,2.13,0,0,0,.42-.07l.53-.15.76-.24a9.58,9.58,0,0,0,3.05-1.75,9.7,9.7,0,0,0,2.22-2.69,9.11,9.11,0,0,0,1.09-3.3,7.76,7.76,0,0,0-.39-3.55,6.64,6.64,0,0,0-2-2.92,12.21,12.21,0,0,0-3-1.88,25.68,25.68,0,0,0-5.63.33,27.21,27.21,0,0,0-5.49,1.48,3.17,3.17,0,0,1-1.75-.28,2.48,2.48,0,0,1-1.12-1.46,2.31,2.31,0,0,1-.09-1,3.36,3.36,0,0,1,.26-1.06A4,4,0,0,1,352.15,142.14Z" transform="translate(-53.4 -53.99)"/><path class="cls-1" d="M223.58,240.71l1.65,4.75a2.1,2.1,0,0,0,.18.31,4.84,4.84,0,0,0,.33.46l.34.41a1.29,1.29,0,0,1,.17.23,10.79,10.79,0,0,0,2.12,2,10.14,10.14,0,0,0,2.53,1.35,9.33,9.33,0,0,0,2.79.54,7.72,7.72,0,0,0,2.9-.43,4.09,4.09,0,0,0,1.58-.95c.41-.4.85-.88,1.33-1.43a2.13,2.13,0,0,0,.3-.41,2.17,2.17,0,0,0,.11-.26.62.62,0,0,1,.11-.19.57.57,0,0,1,.27-.16l.13,0,.12,0a4,4,0,0,0,2.27.66,9.3,9.3,0,0,0,2.4-.52c.39-.14.81-.31,1.25-.51a4.73,4.73,0,0,0,1.17-.73,2.42,2.42,0,0,0,.72-1.05,2.07,2.07,0,0,0-.06-1.38,1.18,1.18,0,0,0-.89-.84,3.58,3.58,0,0,0-1.38,0,6.89,6.89,0,0,0-1.44.46c-.47.21-.84.35-1.1.45l-.5-.18-3.1-8.91-.57-.64-4.22-12.12a1.66,1.66,0,0,0-.39-.61,2.36,2.36,0,0,0-.63-.5,2.74,2.74,0,0,0-.74-.3,1.27,1.27,0,0,0-.7,0l-4.74,1.65a1.37,1.37,0,0,0-.79.65,1.26,1.26,0,0,0,0,1,1.69,1.69,0,0,0,1.26,1.28,4.56,4.56,0,0,0,1.76-.07l1.65-.37q.75-.18.93.33l1.27,3.65v1.05a.68.68,0,0,1-.22.12,1.05,1.05,0,0,1-.87,0,5.76,5.76,0,0,0-.87-.33,4.47,4.47,0,0,0-1.82-.07,9.53,9.53,0,0,0-1.75.43l-.75.28c-.27.11-.55.23-.82.37a5.2,5.2,0,0,0-.74.46,1.43,1.43,0,0,0-.49.56l-2.09,4.38a1.36,1.36,0,0,1-.06.33c0,.09,0,.29,0,.61s0,.67.05,1,0,.71,0,1v.58c0,.15,0,.4,0,.75A2.07,2.07,0,0,0,223.58,240.71Zm3.41-4.17a5.76,5.76,0,0,1,.81-2.22,3.57,3.57,0,0,1,1.93-1.46,4.06,4.06,0,0,1,2.57-.1,6.16,6.16,0,0,1,2.22,1.2,8.53,8.53,0,0,1,1.72,2,10.8,10.8,0,0,1,1.13,2.29,10.49,10.49,0,0,1,.47,2.23,9.27,9.27,0,0,1-.07,2.53,6.54,6.54,0,0,1-.8,2.26,3.07,3.07,0,0,1-1.73,1.41,4.49,4.49,0,0,1-2.64.18,5.56,5.56,0,0,1-2.21-1.17,8.38,8.38,0,0,1-1.69-2,12,12,0,0,1-1.13-2.35A13.63,13.63,0,0,1,227,239,8,8,0,0,1,227,236.54Z" transform="translate(-53.4 -53.99)"/><path class="cls-1" d="M252.89,241.52a8.49,8.49,0,0,0,3.44,1.18,8.65,8.65,0,0,0,3.88-.47,11.73,11.73,0,0,0,3.71-2.12,6.89,6.89,0,0,0,2.25-3.52c.15-.58.27-1.15.36-1.73a3.46,3.46,0,0,0-.17-1.76,1.19,1.19,0,0,0-.68-.77,1.46,1.46,0,0,0-1.09,0,1.9,1.9,0,0,0-.95.69,4.57,4.57,0,0,0-.53,1.06,12.45,12.45,0,0,0-.36,1.23,4.67,4.67,0,0,1-.43,1.11,3.23,3.23,0,0,1-1,1,3.44,3.44,0,0,0-1,1l-.52.2-.53.21a5.3,5.3,0,0,1-2.31.29,5.6,5.6,0,0,1-2.13-.63,5.92,5.92,0,0,1-1.77-1.4,6,6,0,0,1-1.16-2,2.58,2.58,0,0,1-.09-.32,2.54,2.54,0,0,0-.08-.28l.12-.17c.55-.26,1-.46,1.41-.61l1.19-.45,1-.39,1.54-.55c.74-.28,1.52-.55,2.33-.83l2.38-.81c.75-.24,1.27-.42,1.56-.52a10.63,10.63,0,0,0,1.11-.73,1.85,1.85,0,0,0,.66-1.12,2.73,2.73,0,0,1-.09-.34l-.1-.34a6.35,6.35,0,0,0-.53-1c-.27-.45-.57-.9-.89-1.36a15.1,15.1,0,0,0-1-1.25,5.7,5.7,0,0,0-.72-.74,15.75,15.75,0,0,0-4.29-2,7.66,7.66,0,0,0-4.65.27l-.89.29a2,2,0,0,0-.82.48l-.36.32-.53.54-.56.57-.35.38a7.06,7.06,0,0,0-1.5,2.57,11,11,0,0,0-.51,2.9,14.09,14.09,0,0,0,.24,3,20.83,20.83,0,0,0,.76,2.9,12.22,12.22,0,0,0,1.87,3.47A10.16,10.16,0,0,0,252.89,241.52Zm-2.31-12.72a4.19,4.19,0,0,1,.76-1.61,5.41,5.41,0,0,1,1.33-1.23,7.32,7.32,0,0,1,1.61-.8,8.69,8.69,0,0,1,1.65-.38,6.74,6.74,0,0,1,1.74,0,3.65,3.65,0,0,1,1.53.61,2.8,2.8,0,0,1,1,1.43s0,.14.09.28a.62.62,0,0,1,.06.29,2,2,0,0,1-.16.24.38.38,0,0,1-.18.18L251,231c-.11,0-.17,0-.2-.06s-.06-.19-.08-.24A3.19,3.19,0,0,1,250.58,228.8Z" transform="translate(-53.4 -53.99)"/><path class="cls-1" d="M177.42,354.76a9.38,9.38,0,0,1-3.57.51,9.18,9.18,0,0,0-3.57.5,7,7,0,0,0-3.79,2.79,5.22,5.22,0,0,0-.21,4.61,5.5,5.5,0,0,0,3.33,3.54,7.19,7.19,0,0,0,5,0,51.58,51.58,0,0,0,6.18-2.61,51.56,51.56,0,0,1,6.07-2.56,15.52,15.52,0,0,1,4.36-.84,14.68,14.68,0,0,0,4.26-.8l.2-.07a7.68,7.68,0,0,1,.86-.63,6.64,6.64,0,0,0,.85-.64l23.36-8.12a3.51,3.51,0,0,0,1.81-1.48,7.12,7.12,0,0,0,1-2.43,11.93,11.93,0,0,0,.23-2.75,7.64,7.64,0,0,0-.35-2.31c-.19-.54-.36-1-.53-1.35a4.93,4.93,0,0,0-1.09-1.37L215.65,321a5.79,5.79,0,0,0-2.22-3,3.65,3.65,0,0,0-3.38-.41,3.6,3.6,0,0,0-2.57,2.54,9.88,9.88,0,0,0,0,4.14,36.83,36.83,0,0,0,1.28,5,43.07,43.07,0,0,1,1.34,5.15,15.29,15.29,0,0,1,.22,4.56,4.4,4.4,0,0,1-2.09,3.28l-1.65.63c-.76.31-1.58.62-2.44,1s-1.69.69-2.48,1-1.31.57-1.58.67a4.1,4.1,0,0,0-1.69,1.32,3.37,3.37,0,0,1-1.63,1.19,2.08,2.08,0,0,1-.62.16l-.31-.06-.49-.12c-.21,0-.58-.08-1.12-.12a8.31,8.31,0,0,0-1.18.19l-1.69.36a13.24,13.24,0,0,1-1.51.24c-.43,0-.69,0-.76-.25l-13.64-39.23a5.63,5.63,0,0,0-.08-1.05,6.13,6.13,0,0,0-.18-1c-.12-.34-.28-.93-.5-1.76s-.47-1.72-.76-2.68-.57-1.84-.81-2.67-.43-1.39-.55-1.73l.26-.54,11.53-4a3.78,3.78,0,0,0,2.45-2.27,4.77,4.77,0,0,0,0-3.35,4.93,4.93,0,0,0-1.88-2.63,6,6,0,0,0-2.77-1,10.65,10.65,0,0,0-3.16.19,24.66,24.66,0,0,0-3.06.84,25.65,25.65,0,0,0-3.16,1.33,27.44,27.44,0,0,1-3.07,1.29,23.15,23.15,0,0,1-3,.82,21.26,21.26,0,0,0-3.1.85,24.15,24.15,0,0,0-3.07,1.29,24,24,0,0,1-3.06,1.29,21.87,21.87,0,0,1-4.19,1,22.35,22.35,0,0,0-4.18,1,8.19,8.19,0,0,0-4,2.86,4.84,4.84,0,0,0-.51,4.72,6.42,6.42,0,0,0,2.36,3,3.87,3.87,0,0,0,3.78.62L161.44,302l1.6,1c.07,0,.26.4.56,1.28s.5,1.45.67,1.92l1.16,3.33a11.83,11.83,0,0,1,.76,3.82l10.58,30.44a7,7,0,0,1,1.38,2.35l.85,2.43c.09.27.25.78.47,1.53s.38,1.27.48,1.54a5,5,0,0,1-.92,1.9A3.47,3.47,0,0,1,177.42,354.76Z" transform="translate(-53.4 -53.99)"/><path class="cls-1" d="M251.19,341.36,265,336.55a9,9,0,0,0,4.36-3.28,5.41,5.41,0,0,0,.71-5.29,3.65,3.65,0,0,0-1.19-1.62,6.42,6.42,0,0,0-1.91-1.1,7.54,7.54,0,0,0-2.19-.43,5.63,5.63,0,0,0-2.06.27L253,328.51l-1.67-.9-9.21-26.49a8.58,8.58,0,0,0-.24-1.84c-.13-.48-.3-1-.51-1.64s-.45-1.22-.63-1.65a11.31,11.31,0,0,0-1-1.64l-5.91-17,.27-.55,2-.7a27.09,27.09,0,0,1,3.73-1,24.77,24.77,0,0,0,3.73-1,10.68,10.68,0,0,0,4.1-2.38q1.47-1.49.45-4.41c-.73-2.09-1.87-3.25-3.42-3.46a12.83,12.83,0,0,0-5.12.42,55.36,55.36,0,0,0-5.6,1.83,9,9,0,0,1-4.73.74l-16.18,5.62a5.37,5.37,0,0,0-1.76,0c-.38.1-.84.24-1.38.43a8.5,8.5,0,0,0-2.2,1.16,7.24,7.24,0,0,0-1.81,1.81,6.35,6.35,0,0,0-1,2.27,4.49,4.49,0,0,0,.17,2.43,5,5,0,0,0,1.38,2,9.09,9.09,0,0,0,2.22,1.49,8.31,8.31,0,0,0,2.53.77,5.24,5.24,0,0,0,2.42-.22l10.72-3.73.61.47c0,.07.11.25.25.54s.23.5.28.64a15,15,0,0,1,.51,1.8,6.17,6.17,0,0,1,0,2L241.57,331c.08.2-.1.47-.51.8a8.75,8.75,0,0,1-1.38.93,13.82,13.82,0,0,1-1.54.77l-.9.36a16.19,16.19,0,0,1-2.86.72,16,16,0,0,0-2.87.71,8.78,8.78,0,0,0-4.26,3.07,5.15,5.15,0,0,0-.62,5.09,5.84,5.84,0,0,0,1.65,2.6,5.31,5.31,0,0,0,2.38,1.16,7.9,7.9,0,0,0,2.79,0,16,16,0,0,0,2.87-.71,44.82,44.82,0,0,0,4.28-1.72c1.3-.6,2.73-1.17,4.28-1.71.74-.26,1.73-.62,3-1.09A9,9,0,0,1,251.19,341.36Z" transform="translate(-53.4 -53.99)"/><path class="cls-1" d="M328.68,312.1a7,7,0,0,0,1-2.43,12.57,12.57,0,0,0,.24-2.75,8,8,0,0,0-.35-2.31c-.19-.54-.37-1-.53-1.35a5,5,0,0,0-1.1-1.37l-6.19-17.8a5.69,5.69,0,0,0-2.22-3,4,4,0,0,0-5.95,2.13,9.88,9.88,0,0,0,0,4.14,38.37,38.37,0,0,0,1.28,5,39.87,39.87,0,0,1,1.34,5.14,15.06,15.06,0,0,1,.23,4.57,4.42,4.42,0,0,1-2.09,3.28l-1.66.63-2.44,1c-.86.34-1.69.68-2.47,1s-1.32.57-1.58.67a4.07,4.07,0,0,0-1.7,1.32,3.35,3.35,0,0,1-1.62,1.19,2,2,0,0,1-.63.16l-.3-.06-.5-.11a8,8,0,0,0-1.12-.13,8.31,8.31,0,0,0-1.18.19l-1.69.36a10.81,10.81,0,0,1-1.5.23c-.44,0-.7,0-.77-.24l-13.63-39.23a5.63,5.63,0,0,0-.08-1.05,7.53,7.53,0,0,0-.19-1c-.11-.33-.28-.92-.49-1.75s-.47-1.72-.76-2.68-.57-1.85-.82-2.67-.43-1.4-.54-1.73l.26-.55,11.53-4a3.81,3.81,0,0,0,2.44-2.27,4.71,4.71,0,0,0,0-3.35,5,5,0,0,0-1.87-2.64,6.16,6.16,0,0,0-2.78-1,10.67,10.67,0,0,0-3.16.19,24.49,24.49,0,0,0-3.05.84,25.82,25.82,0,0,0-3.17,1.33,26.51,26.51,0,0,1-3.06,1.29,21.72,21.72,0,0,1-3,.81,23.1,23.1,0,0,0-3.1.86,23.41,23.41,0,0,0-3.06,1.29,27.44,27.44,0,0,1-3.07,1.29,21.77,21.77,0,0,1-4.18,1,21.69,21.69,0,0,0-4.19,1,8.12,8.12,0,0,0-4,2.86,4.84,4.84,0,0,0-.52,4.72,6.54,6.54,0,0,0,2.36,3,3.84,3.84,0,0,0,3.78.61l10.72-3.72,1.61,1c.06,0,.25.41.56,1.28l.66,1.92c.24.68.62,1.79,1.16,3.34a11.57,11.57,0,0,1,.76,3.82l10.58,30.44a7,7,0,0,1,1.39,2.35q.45,1.32.84,2.43.14.4.48,1.53c.22.76.38,1.27.48,1.54a5,5,0,0,1-.93,1.9,3.42,3.42,0,0,1-1.61,1.24,9.33,9.33,0,0,1-3.56.51,9.15,9.15,0,0,0-3.57.5,6.91,6.91,0,0,0-3.79,2.79,5.2,5.2,0,0,0-.21,4.6,5.49,5.49,0,0,0,3.33,3.55,7.16,7.16,0,0,0,5,0,50.24,50.24,0,0,0,6.18-2.61,51.7,51.7,0,0,1,6.08-2.56,15.52,15.52,0,0,1,4.36-.84,15,15,0,0,0,4.25-.79l.21-.08a7.2,7.2,0,0,1,.85-.63,8.34,8.34,0,0,0,.86-.64l23.36-8.12A3.45,3.45,0,0,0,328.68,312.1Z" transform="translate(-53.4 -53.99)"/><path class="cls-1" d="M364.64,300.11c.41-.44.83-.91,1.27-1.4a20.46,20.46,0,0,1,1.68-1.66,24.72,24.72,0,0,0,6.93-9.27,34,34,0,0,0,2.58-11,46.51,46.51,0,0,0-.7-11.66,77.16,77.16,0,0,0-3-11.27,42.16,42.16,0,0,0-5.1-10.12,69.28,69.28,0,0,0-7.3-8.92,15.29,15.29,0,0,1-3.7-2.51q-1.66-1.51-3.51-2.91a5.11,5.11,0,0,0-2.19-.94,18.86,18.86,0,0,1-2.3-.57q-2.18-.71-4.11-1.23a21.79,21.79,0,0,0-3.8-.66,20.1,20.1,0,0,0-3.72.05,18.08,18.08,0,0,0-4,.93,19.6,19.6,0,0,0-8.18,5.16,24.38,24.38,0,0,0-4.79,7.73,34.62,34.62,0,0,0-2.13,9.19,75.24,75.24,0,0,0-.31,9.57c0,.52.08,1.24.14,2.16s.13,1.85.22,2.76.17,1.74.23,2.47a11,11,0,0,0,.14,1.2l5.65,16.28c0,.07.16.28.4.65s.5.79.78,1.26.57.94.88,1.4a6.42,6.42,0,0,0,.81,1,47.49,47.49,0,0,0,3.27,3.85,56.38,56.38,0,0,0,4.35,4.21,42.37,42.37,0,0,0,4.85,3.7,16.39,16.39,0,0,0,4.74,2.21A4.41,4.41,0,0,0,346,302l2.07.25,2,.26,1.19.16c1.73.22,3.32.39,4.76.49a11.87,11.87,0,0,0,4.78-.75,9.91,9.91,0,0,0,2.34-1.1A8.36,8.36,0,0,0,364.64,300.11Zm-4.19-10.89-9.91,3.44a4.2,4.2,0,0,1-3-.44,27.87,27.87,0,0,1-3.84-2.06,33.24,33.24,0,0,1-3.66-2.7,17.88,17.88,0,0,1-2.31-2.25,48.68,48.68,0,0,1-4.47-7,55.06,55.06,0,0,1-3.33-7.62,41.62,41.62,0,0,1-1.79-8.56,45.89,45.89,0,0,1-.05-10.41,27.52,27.52,0,0,1,2.73-9.45,11.27,11.27,0,0,1,6.59-5.81,7.59,7.59,0,0,1,5-.22q2.19.78,5,1.72a19.73,19.73,0,0,1,5.06,2.49,22.9,22.9,0,0,1,3.75,3.29,27.89,27.89,0,0,1,3,4l2.9,4.6,4.54,13a6,6,0,0,1,.39,2.93,18.69,18.69,0,0,0-.22,2.79c.09,1.33.12,2.93.08,4.79a24.33,24.33,0,0,1-.71,5.47,17.42,17.42,0,0,1-2,4.9A7.14,7.14,0,0,1,360.45,289.22Z" transform="translate(-53.4 -53.99)"/><path class="cls-1" d="M211.39,398.1a6.21,6.21,0,0,0,2-.34l29-10.1a6.13,6.13,0,0,0-4-11.58l-29,10.09a6.14,6.14,0,0,0,2,11.93Z" transform="translate(-53.4 -53.99)"/><path class="cls-1" d="M269.33,377.92a6,6,0,0,0,2-.35l29-10.09a6.14,6.14,0,0,0-4-11.59l-29,10.09a6.14,6.14,0,0,0,2,11.94Z" transform="translate(-53.4 -53.99)"/><path class="cls-1" d="M327.27,357.73a6.21,6.21,0,0,0,2-.34l29-10.1a6.13,6.13,0,0,0-4-11.58l-29,10.09a6.14,6.14,0,0,0,2,11.93Z" transform="translate(-53.4 -53.99)"/><path class="cls-1" d="M93.06,189.24a6.14,6.14,0,0,0-4.46-4c.56-1.39,1.13-2.77,1.73-4.15A174,174,0,0,1,332.87,97.49c1,.54,2,1.11,3,1.67a6.12,6.12,0,0,0,4.77,10,6.21,6.21,0,0,0,2-.34l5.55-1.94a173.76,173.76,0,0,1,48.1,49.42,11.25,11.25,0,1,0,18.93-12.16A196.55,196.55,0,0,0,54.33,269.55a11.24,11.24,0,0,0,11.18,10.14c.37,0,.74,0,1.11-.05a11.26,11.26,0,0,0,10.1-12.3,173.67,173.67,0,0,1,7-68.36l5.55-1.93A6.14,6.14,0,0,0,93.06,189.24Z" transform="translate(-53.4 -53.99)"/><path class="cls-1" d="M310.44,107l-28.15,9.8a6.14,6.14,0,0,0,2,11.94,6.22,6.22,0,0,0,2-.35l28.15-9.81a6.13,6.13,0,0,0-4-11.58Z" transform="translate(-53.4 -53.99)"/><path class="cls-1" d="M254.14,126.62,226,136.43a6.14,6.14,0,0,0,2,11.93,6.21,6.21,0,0,0,2-.34l28.15-9.81a6.14,6.14,0,0,0-4-11.59Z" transform="translate(-53.4 -53.99)"/><path class="cls-1" d="M141.54,165.85l-28.15,9.8a6.14,6.14,0,0,0,2,11.94,6.22,6.22,0,0,0,2-.35l28.15-9.8a6.14,6.14,0,1,0-4-11.59Z" transform="translate(-53.4 -53.99)"/><path class="cls-1" d="M197.84,146.23,169.69,156a6.14,6.14,0,0,0,2,11.93,6.21,6.21,0,0,0,2-.34l28.15-9.81a6.14,6.14,0,0,0-4-11.59Z" transform="translate(-53.4 -53.99)"/><path class="cls-1" d="M435.2,237h-.13A11.25,11.25,0,0,0,424,248.38a173.85,173.85,0,0,1-12.72,67.46l-28,9.77a6.14,6.14,0,0,0,2,11.94,6,6,0,0,0,2-.35L404,331.35a174.18,174.18,0,0,1-224.56,78.23l5-1.73a6.14,6.14,0,0,0-4-11.59l-16.22,5.65a173.51,173.51,0,0,1-52-45.15A11.25,11.25,0,0,0,94.32,370.5,196.56,196.56,0,0,0,446.45,248.12,11.26,11.26,0,0,0,435.2,237Z" transform="translate(-53.4 -53.99)"/></svg>