<svg id="Calque_1" data-name="Calque 1" xmlns="http://www.w3.org/2000/svg" viewBox="0 0 196.22 111.72"><defs><style>.cls-1{fill:#fefefe;}.cls-2{fill:#ea001b;}.cls-3{fill:#0099df;}.cls-4{fill:#6c6bbd;}</style></defs><rect class="cls-1" width="196.22" height="111.72"/><path class="cls-2" d="M218.79,208.1h5.26c0,.14.18.1.27.11A39.44,39.44,0,0,1,246,216.62c-.82.72-1.67,1.41-2.46,2.16A40,40,0,0,0,231.07,252a38.6,38.6,0,0,0,2.44,10.25,39.71,39.71,0,0,0,8.12,13,47.73,47.73,0,0,0,4.37,4l-.08.08a39.8,39.8,0,0,1-39.65,5.44A39.87,39.87,0,0,1,182.39,240a39.9,39.9,0,0,1,34.2-31.62A10.14,10.14,0,0,0,218.79,208.1Z" transform="translate(-147.92 -192.15)"/><path class="cls-3" d="M310.57,245.59v4.83c-.11.07-.09.19-.1.29a35.12,35.12,0,0,1-.42,3.68,38.91,38.91,0,0,1-10,20.53,39.67,39.67,0,0,1-42.51,10.63,37.8,37.8,0,0,1-11.36-6.26c.69-.59,1.4-1.16,2.07-1.78A42.8,42.8,0,0,0,254,271a39.32,39.32,0,0,0,5.34-10.66A40.39,40.39,0,0,0,261,242.94a38.31,38.31,0,0,0-2.18-8.88,40.1,40.1,0,0,0-8.61-13.73c-1.25-1.33-2.64-2.51-4-3.71a.57.57,0,0,1,.11-.11,39.63,39.63,0,0,1,19.46-8.1,12.62,12.62,0,0,0,2.36-.31H273c.13.14.3.09.45.1a32.5,32.5,0,0,1,3.42.37,40,40,0,0,1,33.45,34.54A22.68,22.68,0,0,0,310.57,245.59Z" transform="translate(-147.92 -192.15)"/><path class="cls-4" d="M246,216.62h.19c1.37,1.2,2.76,2.38,4,3.71a40.1,40.1,0,0,1,8.61,13.73,38.31,38.31,0,0,1,2.18,8.88,40.39,40.39,0,0,1-1.63,17.42A39.32,39.32,0,0,1,254,271a42.8,42.8,0,0,1-5.76,6.49c-.67.62-1.38,1.19-2.07,1.78H246a47.73,47.73,0,0,1-4.37-4,39.71,39.71,0,0,1-8.12-13A38.6,38.6,0,0,1,231.07,252a40,40,0,0,1,12.47-33.25C244.33,218,245.18,217.34,246,216.62Z" transform="translate(-147.92 -192.15)"/></svg>