<svg width="20" height="16" viewBox="0 0 20 16" fill="none" xmlns="http://www.w3.org/2000/svg">
<path d="M16.1569 0.000976562C16.9504 0.000976563 17.7115 0.317047 18.2726 0.879656C18.8337 1.44227 19.1489 2.20533 19.1489 3.00098V12.601C19.1489 13.3966 18.8337 14.1597 18.2726 14.7223C17.7115 15.2849 16.9504 15.601 16.1569 15.601H2.99202C2.19849 15.601 1.43746 15.2849 0.876343 14.7223C0.31523 14.1597 0 13.3966 0 12.601V3.00098C0 2.20533 0.31523 1.44227 0.876343 0.879656C1.43746 0.317047 2.19849 0.000976562 2.99202 0.000976562H16.1569ZM17.9521 4.75418L9.87846 9.51818C9.80213 9.56311 9.71681 9.59051 9.62864 9.59839C9.54048 9.60628 9.45167 9.59446 9.36862 9.56378L9.27048 9.51818L1.19681 4.75658V12.601C1.19681 13.0784 1.38595 13.5362 1.72261 13.8738C2.05928 14.2113 2.5159 14.401 2.99202 14.401H16.1569C16.633 14.401 17.0897 14.2113 17.4263 13.8738C17.763 13.5362 17.9521 13.0784 17.9521 12.601V4.75418ZM16.1569 1.20098H2.99202C2.5159 1.20098 2.05928 1.39062 1.72261 1.72818C1.38595 2.06575 1.19681 2.52359 1.19681 3.00098V3.36338L9.57447 8.30498L17.9521 3.36098V3.00098C17.9521 2.52359 17.763 2.06575 17.4263 1.72818C17.0897 1.39062 16.633 1.20098 16.1569 1.20098Z" fill="white"/>
</svg>
