<svg id="Calque_1" data-name="Calque 1" xmlns="http://www.w3.org/2000/svg" viewBox="0 0 196.22 111.72"><defs><style>.cls-1{fill:#fefefe;}.cls-2{fill:#033286;}.cls-3{fill:#049cde;}.cls-4{fill:#022169;}</style></defs><rect class="cls-1" width="196.22" height="111.72"/><path class="cls-1" d="M271.91,230.22a1.79,1.79,0,0,0-.17-.6c1.23-9-2.63-14.48-11.64-15.93-8.72-1.41-17.54-.44-26.31-.64-2.31-.05-3.18,1.45-3.5,3.51-2.59,16.77-5.15,33.55-7.85,50.3-.47,2.95.57,3.73,3.27,3.63,3.46-.13,6.93,0,10.4,0a31.11,31.11,0,0,1-.35,3.75c-.57,2.8.23,4.17,3.32,3.91a42.25,42.25,0,0,1,6.56,0c2.89.21,4.24-1.1,4.6-3.87.44-3.54,1.15-7.05,1.49-10.59.26-2.61,1.48-3.7,4-3.59a28.38,28.38,0,0,0,3.45-.07c11.71-.89,19.5-10.76,17.64-22.29A9.7,9.7,0,0,0,271.91,230.22Z" transform="translate(-151.89 -185.84)"/><path class="cls-2" d="M236.11,270.45c-3.47,0-6.94-.09-10.4,0-2.7.1-3.74-.68-3.27-3.63,2.7-16.75,5.26-33.53,7.85-50.3.32-2.06,1.19-3.56,3.5-3.51,8.77.2,17.59-.77,26.31.64,9,1.45,12.87,6.89,11.64,15.93-8.88-2.72-18-.94-27-1.36-1.41-.06-1.87,1-2.07,2.28-.64,4.05-1.54,8.06-2,12.13-.22,2.12-2,4.38.08,6.5a6.4,6.4,0,0,0-1.65,3.66C238.05,258.69,237.76,264.69,236.11,270.45Z" transform="translate(-151.89 -185.84)"/><path class="cls-3" d="M236.11,270.45c1.65-5.76,1.94-11.76,3-17.62a6.4,6.4,0,0,1,1.65-3.66c2.54-.09,5.07-.22,7.61-.28,12.26-.3,19.81-5.61,22.74-16,.25-.89.51-1.78.77-2.66a9.7,9.7,0,0,1,4.93,7.47c1.86,11.53-5.93,21.4-17.64,22.29a28.38,28.38,0,0,1-3.45.07c-2.54-.11-3.76,1-4,3.59-.34,3.54-1,7.05-1.49,10.59-.36,2.77-1.71,4.08-4.6,3.87a42.25,42.25,0,0,0-6.56,0c-3.09.26-3.89-1.11-3.32-3.91A31.11,31.11,0,0,0,236.11,270.45Z" transform="translate(-151.89 -185.84)"/><path class="cls-4" d="M271.91,230.22c-.26.88-.52,1.77-.77,2.66-2.93,10.4-10.48,15.71-22.74,16-2.54.06-5.07.19-7.61.28-2.07-2.12-.3-4.38-.08-6.5.42-4.07,1.32-8.08,2-12.13.2-1.29.66-2.34,2.07-2.28,9,.42,18.12-1.36,27,1.36A1.79,1.79,0,0,1,271.91,230.22Z" transform="translate(-151.89 -185.84)"/></svg>