<svg id="Calque_1" data-name="Calque 1" xmlns="http://www.w3.org/2000/svg" viewBox="0 0 156.41 184.35"><defs><style>.cls-1{fill:#ff4079;}</style></defs><path class="cls-1" d="M277.76,248.53a1.79,1.79,0,0,1-1.05-1.42,2.2,2.2,0,0,1,.75-2,49.84,49.84,0,1,0-66.15.1,2,2,0,0,1,.68,1.83,1.88,1.88,0,0,1-1.08,1.46,78.61,78.61,0,0,0-44.78,70.72v23.17h156.4V319.24A78.58,78.58,0,0,0,277.76,248.53Zm-86.93,29.79h107a67.47,67.47,0,0,1,6.94,11.18H183.88A68.19,68.19,0,0,1,190.83,278.32Zm118.17,22A66.3,66.3,0,0,1,311.44,313H177.21a67.09,67.09,0,0,1,2.45-12.73Zm-38.71-63.21h0a13,13,0,0,0-4.08,6.94H222.49a12.84,12.84,0,0,0-4-6.86,40,40,0,0,1-4-4.13h59.76A40.4,40.4,0,0,1,270.29,237.08Zm-61.11-46.26h70.25a38.59,38.59,0,0,1,3.68,12.73H205.52A38.71,38.71,0,0,1,209.18,190.82Zm73.67,23.52a38.84,38.84,0,0,1-2.18,7.9H208a39.72,39.72,0,0,1-2.2-7.9Zm-36-45.41A38.88,38.88,0,0,1,271.66,180H217c.2-.21.4-.41.61-.61A38.79,38.79,0,0,1,246.87,168.93Zm-31.35,89.34a12.42,12.42,0,0,0,4.4-3.47h48.82a12.74,12.74,0,0,0,4.4,3.48,66.79,66.79,0,0,1,14.4,9.25H201.11A67.53,67.53,0,0,1,215.52,258.27Zm-38.61,73.35v-7.81H311.75v7.81Z" transform="translate(-166.13 -158.06)"/></svg>