<svg id="Calque_1" data-name="Calque 1" xmlns="http://www.w3.org/2000/svg" viewBox="0 0 196.22 111.72"><defs><style>.cls-1{fill:#fefefe;}.cls-2{fill:#1b2070;}</style></defs><rect class="cls-1" width="196.22" height="111.72"/><path class="cls-2" d="M329.14,273.45v.93a2.11,2.11,0,0,0-1-.08c-3.5,0-7,0-10.52,0-.74,0-1-.21-1.13-.93-.36-2-.82-4-1.22-6-.1-.54-.27-.82-.93-.82q-7.84,0-15.69,0a.94.94,0,0,0-1,.75c-.71,2.05-1.51,4.08-2.19,6.15a1.06,1.06,0,0,1-1.21.89c-4.12,0-8.25,0-12.37,0a1.37,1.37,0,0,1-.85-.11c.08-.22.17-.44.26-.66l12.15-29q3.81-9.12,7.64-18.23a6,6,0,0,1,5.22-3.93.7.7,0,0,0,.52.14l11.54,0a1.28,1.28,0,0,1,.11.24q4.81,23.08,9.64,46.15A24.9,24.9,0,0,0,329.14,273.45Zm-16.5-17.57c.26-.39.05-.78,0-1.15q-1.33-6.45-2.68-12.88c-.36-1.72-.73-3.43-1.14-5.35-.94,2.58-1.81,4.94-2.66,7.3q-2.16,6-4.3,12c.08.26.3.28.52.28h10.11C312.58,256.09,312.81,256.14,312.64,255.88Z" transform="translate(-147.92 -192.15)"/><path class="cls-2" d="M162.9,222.86c.24-.49.63-.58,1.17-.57,7.29,0,14.59,0,21.88,0a6.18,6.18,0,0,1,6.29,5c1.9,9.92,3.75,19.85,5.62,29.79.38-.06.41-.42.51-.68q6.56-16.54,13.07-33.11a1.4,1.4,0,0,1,1.58-1.07c4.06.05,8.12,0,12.19,0,.66,0,.85.06.55.79q-10.62,25.23-21.17,50.48a1,1,0,0,1-1.15.75q-6.28,0-12.56,0c-.63,0-.89-.15-1-.8-3.49-13.59-7-27.16-10.49-40.74a6.83,6.83,0,0,0-4-4.92A62.48,62.48,0,0,0,163.26,224a1.1,1.1,0,0,0-.36,0Z" transform="translate(-147.92 -192.15)"/><path class="cls-2" d="M274.84,221.38c1.33.25,2.67.48,4,.74a40.43,40.43,0,0,1,4.7,1.31c.47.14.63.35.52.85-.72,3.27-1.43,6.54-2.11,9.81-.11.54-.27.6-.76.39a25.54,25.54,0,0,0-11.2-2.2,10.13,10.13,0,0,0-5,1.29c-2.61,1.59-2.8,4.09-.48,6a29.34,29.34,0,0,0,5.35,3.22,41.09,41.09,0,0,1,6.8,4.23c4.64,3.77,5.95,8.63,4.56,14.29s-5.33,9.32-10.62,11.54a28.64,28.64,0,0,1-8.94,2c-.17,0-.39-.07-.46.19h-1.29a5.59,5.59,0,0,0-3.14,0h-1.48a15.2,15.2,0,0,0-3.48-.54,37.89,37.89,0,0,1-7.84-2c-.39-.16-.66-.26-.53-.83.8-3.59,1.55-7.19,2.33-10.86A41.57,41.57,0,0,0,251,263a23.21,23.21,0,0,0,12.09.66,6.79,6.79,0,0,0,3.36-1.83,3.76,3.76,0,0,0,.05-5.38,19,19,0,0,0-5.7-3.68,30.46,30.46,0,0,1-8.16-5.44c-5.45-5.35-4.45-12.94-.69-17.89,2.92-3.85,7-5.92,11.54-7.13a29.38,29.38,0,0,1,4.17-.75c.14,0,.31,0,.36-.19Z" transform="translate(-147.92 -192.15)"/><path class="cls-2" d="M256.74,275.12a5.59,5.59,0,0,1,3.14,0Z" transform="translate(-147.92 -192.15)"/><path class="cls-2" d="M245,223.21q-2.68,12.57-5.36,25.13c-1.76,8.28-3.55,16.56-5.29,24.85-.17.81-.42,1.15-1.34,1.13-3.85-.07-7.7-.05-11.55,0-.75,0-.84-.18-.69-.89q5.16-24,10.27-48c.21-1,.47-2,.71-3,4.08,0,8.16,0,12.24,0C244.63,222.47,244.94,222.64,245,223.21Z" transform="translate(-147.92 -192.15)"/><path class="cls-2" d="M245,223.21c-.1-.57-.41-.74-1-.74-4.08,0-8.16,0-12.24,0,.21-.35.55-.17.82-.17,3.91,0,7.81,0,11.71,0C245.13,222.27,245.38,222.45,245,223.21Z" transform="translate(-147.92 -192.15)"/><path class="cls-2" d="M306.25,222.35l11.76,0c.1,0,.2.1.3.16l-11.54,0A.7.7,0,0,1,306.25,222.35Z" transform="translate(-147.92 -192.15)"/><path class="cls-2" d="M301.83,255.82l10.81.06c.17.26-.06.21-.18.21H302.35C302.13,256.1,301.91,256.08,301.83,255.82Z" transform="translate(-147.92 -192.15)"/></svg>